<svg width="223" height="52" viewBox="0 0 223 52" fill="none" xmlns="http://www.w3.org/2000/svg">
<path d="M45.68 51H33.368L12.776 19.824V51H0.464V0.455998H12.776L33.368 31.776V0.455998H45.68V51ZM92.4766 30.264C92.4766 31.416 92.4046 32.616 92.2606 33.864H64.3966C64.5886 36.36 65.3806 38.28 66.7726 39.624C68.2126 40.92 69.9646 41.568 72.0286 41.568C75.1006 41.568 77.2366 40.272 78.4366 37.68H91.5406C90.8686 40.32 89.6446 42.696 87.8686 44.808C86.1406 46.92 83.9566 48.576 81.3166 49.776C78.6766 50.976 75.7246 51.576 72.4606 51.576C68.5246 51.576 65.0206 50.736 61.9486 49.056C58.8766 47.376 56.4766 44.976 54.7486 41.856C53.0206 38.736 52.1566 35.088 52.1566 30.912C52.1566 26.736 52.9966 23.088 54.6766 19.968C56.4046 16.848 58.8046 14.448 61.8766 12.768C64.9486 11.088 68.4766 10.248 72.4606 10.248C76.3486 10.248 79.8046 11.064 82.8286 12.696C85.8526 14.328 88.2046 16.656 89.8846 19.68C91.6126 22.704 92.4766 26.232 92.4766 30.264ZM79.8766 27.024C79.8766 24.912 79.1566 23.232 77.7166 21.984C76.2766 20.736 74.4766 20.112 72.3166 20.112C70.2526 20.112 68.5006 20.712 67.0606 21.912C65.6686 23.112 64.8046 24.816 64.4686 27.024H79.8766ZM122.732 51L115.028 39.84L108.548 51H95.2278L108.476 30.48L94.8678 10.824H108.692L116.396 21.912L122.876 10.824H136.196L122.732 31.056L136.556 51H122.732ZM180.972 10.824V51H168.66V45.528C167.412 47.304 165.708 48.744 163.548 49.848C161.436 50.904 159.084 51.432 156.492 51.432C153.42 51.432 150.708 50.76 148.356 49.416C146.004 48.024 144.18 46.032 142.884 43.44C141.588 40.848 140.94 37.8 140.94 34.296V10.824H153.18V32.64C153.18 35.328 153.876 37.416 155.268 38.904C156.66 40.392 158.532 41.136 160.884 41.136C163.284 41.136 165.18 40.392 166.572 38.904C167.964 37.416 168.66 35.328 168.66 32.64V10.824H180.972ZM206.16 51.576C202.656 51.576 199.536 50.976 196.8 49.776C194.064 48.576 191.904 46.944 190.32 44.88C188.736 42.768 187.848 40.416 187.656 37.824H199.824C199.968 39.216 200.616 40.344 201.768 41.208C202.92 42.072 204.336 42.504 206.016 42.504C207.552 42.504 208.728 42.216 209.544 41.64C210.408 41.016 210.84 40.224 210.84 39.264C210.84 38.112 210.24 37.272 209.04 36.744C207.84 36.168 205.896 35.544 203.208 34.872C200.328 34.2 197.928 33.504 196.008 32.784C194.088 32.016 192.432 30.84 191.04 29.256C189.648 27.624 188.952 25.44 188.952 22.704C188.952 20.4 189.576 18.312 190.824 16.44C192.12 14.52 193.992 13.008 196.44 11.904C198.936 10.8 201.888 10.248 205.296 10.248C210.336 10.248 214.296 11.496 217.176 13.992C220.104 16.488 221.784 19.8 222.216 23.928H210.84C210.648 22.536 210.024 21.432 208.968 20.616C207.96 19.8 206.616 19.392 204.936 19.392C203.496 19.392 202.392 19.68 201.624 20.256C200.856 20.784 200.472 21.528 200.472 22.488C200.472 23.64 201.072 24.504 202.272 25.08C203.52 25.656 205.44 26.232 208.032 26.808C211.008 27.576 213.432 28.344 215.304 29.112C217.176 29.832 218.808 31.032 220.2 32.712C221.64 34.344 222.384 36.552 222.432 39.336C222.432 41.688 221.76 43.8 220.416 45.672C219.12 47.496 217.224 48.936 214.728 49.992C212.28 51.048 209.424 51.576 206.16 51.576Z" fill="#1FA4E4"/>
</svg>
